# xmcd CD database file
#
# Track frame offsets:
#	150
#	19250
#	38675
#	55050
#	73575
#	97707
#	116372
#	134167
#	153995
#	170987
#	189500
#	212012
#
# Disc length: 3096 seconds
#
# Revision: 3
# Processed by: cddbd v1.5.1PL2 Copyright (c) Steve Scherf et al.
# Submitted via: CDex 1.50
#
DISCID=a30c160c
DTITLE=Ray Charles - Strong Love Affair
DYEAR=1996
DGENRE=Jazz
TTITLE0=All She Wants To Do Is Love Me
TTITLE1=Say No More
TTITLE2=No Time To Waste Time
TTITLE3=Angelina
TTITLE4=Tell Me What You Want Me To Do
TTITLE5=Strong Love Affair
TTITLE6=Everybody's Handsome Child
TTITLE7=Out Of My Life
TTITLE8=The Fever
TTITLE9=Separate Ways
TTITLE10=I Need A Good Woman Bad
TTITLE11=If You Give Me Your Heart
EXTD=YEAR: 1996
EXTT0=
EXTT1=
EXTT2=
EXTT3=
EXTT4=
EXTT5=
EXTT6=
EXTT7=
EXTT8=
EXTT9=
EXTT10=
EXTT11=
PLAYORDER=
